<svg preserveAspectRatio="none" width="100%" height="100%" overflow="visible" style="display: block;" viewBox="0 0 20 20" fill="none" xmlns="http://www.w3.org/2000/svg">
<g id="SVG">
<path id="Vector" d="M18.1667 8.375H17.5V8.33333H10V11.6667H14.7083C14.0417 13.625 12.1667 15 10 15C7.25 15 5 12.75 5 10C5 7.25 7.25 5 10 5C11.2917 5 12.4583 5.5 13.3333 6.25L15.7083 3.875C14.2917 2.5 12.25 1.66667 10 1.66667C5.41667 1.66667 1.66667 5.41667 1.66667 10C1.66667 14.5833 5.41667 18.3333 10 18.3333C14.5833 18.3333 18.3333 14.5833 18.3333 10C18.3333 9.45833 18.2917 8.91667 18.1667 8.375Z" fill="var(--fill-0, #FFC107)"/>
<path id="Vector_2" d="M2.625 6.125L5.375 8.125C6.125 6.29167 7.91667 5 10 5C11.2917 5 12.4583 5.5 13.3333 6.25L15.7083 3.875C14.2917 2.5 12.25 1.66667 10 1.66667C6.79167 1.66667 4.04167 3.45833 2.625 6.125Z" fill="var(--fill-0, #FF3D00)"/>
<path id="Vector_3" d="M10 18.3333C12.1667 18.3333 14.125 17.5 15.5833 16.1667L13 14C12.1667 14.625 11.125 15 10 15C7.83333 15 6 13.625 5.29167 11.6667L2.58333 13.75C3.95833 16.5 6.75 18.3333 10 18.3333Z" fill="var(--fill-0, #4CAF50)"/>
<path id="Vector_4" d="M18.1667 8.375H17.5V8.33333H10V11.6667H14.7083C14.375 12.5833 13.7917 13.4167 13 14L15.5833 16.1667C15.375 16.3333 18.3333 14.1667 18.3333 10C18.3333 9.45833 18.2917 8.91667 18.1667 8.375Z" fill="var(--fill-0, #1976D2)"/>
</g>
</svg>
