<svg width="204" height="62" viewBox="0 0 204 62" fill="none" xmlns="http://www.w3.org/2000/svg">
<g id="Home">
<g id="Coinple">
<path id="Coinple - COS2" d="M28.5274 14.8977C32.7782 14.3953 36.9936 15.9986 40.2789 18.6168C42.9639 16.6183 45.2051 15.4296 48.5962 14.9882C52.8782 14.3889 57.2203 15.5444 60.6377 18.1924C64.0318 20.8289 66.2476 24.6987 66.8043 28.9602C67.3502 33.2467 66.134 37.5716 63.4336 40.9453C60.5805 44.5493 56.8075 46.5824 52.2496 47.0982C47.5364 47.2974 44.0373 46.3619 40.3207 43.3331C37.9743 45.4031 34.6195 46.7718 31.5188 47.069C27.2493 47.5052 22.9817 46.225 19.657 43.5109C16.3554 40.789 14.2591 36.8761 13.8221 32.6201C12.9786 23.5656 19.4571 15.7137 28.5274 14.8977ZM58.4274 20.2016C56.2529 18.6675 53.4165 17.6819 50.7257 17.7492C48.035 17.6818 45.1984 18.6675 43.0239 20.2016C42.7961 20.357 42.5672 20.5212 42.3365 20.6947C42.2762 20.7401 42.2234 20.7937 42.1793 20.8533C42.1445 20.8827 42.1099 20.9122 42.0757 20.9419L41.9493 21.0521C39.3118 23.3812 37.6943 26.6567 37.4518 30.1716L37.4408 30.3361C37.2318 33.7888 38.4157 37.184 40.7301 39.7599L40.7303 39.7597C41.2906 40.391 41.9051 40.9632 42.5638 41.4718C44.0325 42.6915 45.893 43.5188 47.8094 43.94C47.8145 43.9412 47.8196 43.9423 47.8246 43.9434C47.835 43.9457 47.8455 43.948 47.8559 43.9503C48.5363 44.1013 49.2316 44.2003 49.9359 44.2438H49.9372C50.1972 44.2594 50.4604 44.2665 50.7257 44.2658C50.9911 44.2665 51.2543 44.2594 51.5143 44.2438H51.5156C52.2199 44.2003 52.915 44.1013 53.5954 43.9503C53.6058 43.948 53.6163 43.9457 53.6267 43.9434C53.6317 43.9423 53.6368 43.9412 53.6419 43.94C55.5583 43.5188 57.4188 42.6915 58.8875 41.4718C59.5462 40.9632 60.1609 40.391 60.7212 39.7597L60.7214 39.7599C63.0358 37.184 64.2197 33.7887 64.0107 30.3361L63.9997 30.1716C63.7573 26.6567 62.1397 23.3812 59.5022 21.0521L59.3758 20.9419C59.3415 20.9122 59.3069 20.8827 59.2721 20.8533C59.2279 20.7937 59.1753 20.7401 59.115 20.6947C58.8843 20.5211 58.6552 20.3571 58.4274 20.2016ZM38.2703 20.7247C35.5996 18.6441 32.4114 17.4836 28.929 17.8152V17.815C16.6294 18.9789 12.3544 34.0233 21.7195 41.4288L21.7212 41.4301C24.5022 43.6163 28.0447 44.5938 31.5533 44.1438L31.5531 44.1436C34.1754 43.8227 36.1605 42.8472 38.2213 41.3952C38.3909 41.2757 38.5058 41.0933 38.5403 40.8888C38.5747 40.6843 38.5257 40.4743 38.4046 40.306L37.8119 39.4822C37.5732 39.1505 37.1203 39.062 36.7756 39.2731L36.7426 39.2945C34.618 40.7464 33.1223 41.4311 30.5933 41.6416C27.4123 41.6601 24.7235 40.864 22.4672 38.65H22.4674C20.4041 36.6246 19.2452 33.8522 19.2533 30.9609C19.2533 30.9591 19.2533 30.9572 19.2533 30.9554C19.241 28.1198 20.3782 25.4004 22.4052 23.4175C24.4645 21.4048 27.2499 20.3097 30.1285 20.3814V20.3816C32.5004 20.441 34.7901 21.2647 36.6561 22.7303C36.9857 22.9891 37.4614 22.94 37.7311 22.6191L38.3877 21.8378C38.5235 21.6762 38.5876 21.4662 38.5655 21.2563C38.5433 21.0464 38.4368 20.8544 38.2703 20.7247ZM50.8502 20.3549C53.0405 20.3831 55.024 21.1217 56.9925 22.374C58.0178 23.108 58.9166 24.0223 59.6396 25.0848V25.085C61.223 27.4244 61.7946 30.3039 61.224 33.0703L61.2238 33.0714C60.7116 35.5721 59.3309 37.8 57.341 39.3696C57.0109 39.6226 56.7036 39.8392 56.4028 40.0297C56.0785 40.2312 55.7453 40.4145 55.4044 40.579C54.7991 40.8629 54.1463 41.0869 53.3184 41.325C53.2396 41.3446 53.16 41.3637 53.0767 41.3836C52.3326 41.5513 51.579 41.6379 50.8284 41.6458C50.01 41.6528 49.1867 41.5665 48.3748 41.3836C48.2915 41.3637 48.2119 41.3446 48.1331 41.325C47.3051 41.0868 46.6523 40.863 46.0469 40.579C45.706 40.4145 45.3728 40.2312 45.0485 40.0297C44.7477 39.8392 44.4404 39.6226 44.1103 39.3696C42.1205 37.8 40.7399 35.5721 40.2277 33.0714L40.2275 33.0703C39.6569 30.3038 40.2285 27.4244 41.8119 25.085V25.0848C42.5348 24.0224 43.4336 23.108 44.4588 22.374C46.5017 21.0744 48.5607 20.3282 50.8502 20.3549ZM50.7089 27.7378C49.4397 26.3094 48.8174 25.6799 46.7952 25.9357C45.7849 26.2796 44.8173 26.8394 44.3423 27.8617C43.965 28.6743 43.9784 29.6983 44.2795 30.5323C44.891 32.2256 49.3341 36.28 50.7808 37.7312L53.72 34.7063C55.2116 33.1766 57.4938 31.4416 57.4613 29.315C57.4456 28.3888 57.0603 27.5087 56.3954 26.8757C55.7249 26.2261 54.8274 25.8727 53.9008 25.8931C52.4194 25.9327 51.631 26.7381 50.7089 27.7378Z" fill="#3C111D"/>
<g id="Coinple_2">
<path id="Vector" d="M176.245 41.2509V20.5599H188.718V21.9588H177.702V30.2352H188.368V31.6049H177.702V39.8521H188.951V41.2509H176.245Z" fill="#3C111D"/>
<path id="Vector_2" d="M162.852 41.2509V20.5599H164.309V40.4641L163.755 39.8521H173.236V41.2509H162.852Z" fill="#3C111D"/>
<path id="Vector_3" d="M144.815 41.2509V20.5599H151.897C154.131 20.5599 155.87 21.1039 157.113 22.1919C158.357 23.2605 158.978 24.737 158.978 26.6215C158.978 27.8649 158.697 28.9432 158.133 29.8563C157.57 30.75 156.754 31.4397 155.685 31.9254C154.636 32.4111 153.373 32.654 151.897 32.654H146.272V41.2509H144.815ZM146.272 31.2551H151.897C153.684 31.2551 155.054 30.8569 156.006 30.0603C156.977 29.2638 157.463 28.1175 157.463 26.6215C157.463 25.1256 156.977 23.9793 156.006 23.1827C155.054 22.3668 153.684 21.9588 151.897 21.9588H146.272V31.2551Z" fill="#3C111D"/>
<path id="Vector_4" d="M124.445 41.2509V20.5599H126.543L138.492 39.823V20.5599H139.949V41.2509H137.792L125.902 22.1045V41.2509H124.445Z" fill="#3C111D"/>
<path id="Vector_5" d="M118.134 41.2509V20.5599H119.591V41.2509H118.134Z" fill="#3C111D"/>
<path id="Vector_6" d="M105.459 41.7172C103.574 41.7172 101.952 41.2801 100.592 40.4058C99.2323 39.5315 98.1831 38.2881 97.4449 36.6756C96.7066 35.0631 96.3375 33.1494 96.3375 30.9346C96.3375 28.7003 96.7066 26.7769 97.4449 25.1644C98.1831 23.5519 99.2323 22.3085 100.592 21.4342C101.952 20.5405 103.574 20.0936 105.459 20.0936C107.344 20.0936 108.966 20.5405 110.326 21.4342C111.705 22.3085 112.754 23.5519 113.473 25.1644C114.211 26.7769 114.581 28.7003 114.581 30.9346C114.581 33.1494 114.211 35.0631 113.473 36.6756C112.754 38.2881 111.705 39.5315 110.326 40.4058C108.966 41.2801 107.344 41.7172 105.459 41.7172ZM105.459 40.2892C107.033 40.2892 108.383 39.9104 109.51 39.1527C110.656 38.395 111.53 37.3167 112.133 35.9179C112.735 34.5191 113.036 32.858 113.036 30.9346C113.036 28.9917 112.735 27.3209 112.133 25.9221C111.53 24.5233 110.656 23.445 109.51 22.6873C108.383 21.9102 107.033 21.5216 105.459 21.5216C103.905 21.5216 102.554 21.9102 101.408 22.6873C100.281 23.445 99.4071 24.5233 98.7854 25.9221C98.1831 27.3209 97.882 28.9917 97.882 30.9346C97.882 32.858 98.1831 34.5191 98.7854 35.9179C99.4071 37.3167 100.281 38.395 101.408 39.1527C102.554 39.9104 103.905 40.2892 105.459 40.2892Z" fill="#3C111D"/>
<path id="Vector_7" d="M85.5673 41.7173C83.78 41.7173 82.216 41.2898 80.8754 40.435C79.5543 39.5607 78.5246 38.3173 77.7864 36.7048C77.0481 35.0922 76.679 33.1689 76.679 30.9346C76.679 28.7004 77.0481 26.777 77.7864 25.1644C78.5246 23.5325 79.5543 22.2794 80.8754 21.4051C82.216 20.5308 83.78 20.0937 85.5673 20.0937C87.9182 20.0937 89.7736 20.7445 91.1335 22.0462C92.4935 23.3285 93.3872 25.0576 93.8146 27.2335L92.2701 27.3501C91.9592 25.5627 91.2404 24.1445 90.1135 23.0953C88.9867 22.0462 87.4713 21.5217 85.5673 21.5217C84.0908 21.5217 82.7988 21.9102 81.6914 22.6874C80.584 23.445 79.7292 24.5233 79.1269 25.9221C78.5246 27.321 78.2235 28.9918 78.2235 30.9346C78.2235 32.8774 78.5246 34.5483 79.1269 35.9471C79.7292 37.3265 80.584 38.395 81.6914 39.1527C82.7988 39.9104 84.0908 40.2893 85.5673 40.2893C87.5685 40.2893 89.1518 39.7356 90.3175 38.6282C91.4832 37.5013 92.1924 35.9568 92.4449 33.9946L93.9895 34.1111C93.7369 35.6654 93.2512 37.0156 92.5324 38.1619C91.8135 39.2887 90.8615 40.163 89.6764 40.7847C88.5107 41.4064 87.141 41.7173 85.5673 41.7173Z" fill="#3C111D"/>
</g>
</g>
</g>
</svg>
