<svg width="204" height="127" viewBox="0 0 204 127" fill="none" xmlns="http://www.w3.org/2000/svg">
<g id="Splash">
<g id="Coinple">
<path id="Coinple - COS2" d="M81.3866 0.166661C89.0997 -0.744955 96.7485 2.16409 102.71 6.91482C107.581 3.28862 111.648 1.1318 117.801 0.330873C125.571 -0.756618 133.449 1.34007 139.65 6.14471C145.809 10.9287 149.829 17.9503 150.839 25.6828C151.83 33.4606 149.623 41.3081 144.723 47.4296C139.547 53.9689 132.7 57.658 124.43 58.5939C115.878 58.9552 109.529 57.2579 102.785 51.7621C98.528 55.5182 92.4407 58.0015 86.8145 58.5409C79.0675 59.3323 71.3242 57.0094 65.2915 52.0847C59.3008 47.1459 55.497 40.0461 54.7042 32.3235C53.1737 15.8943 64.9288 1.64725 81.3866 0.166661ZM135.64 9.79041C131.694 7.00689 126.547 5.21842 121.665 5.34053C116.783 5.21838 111.636 7.00682 107.69 9.79041C107.277 10.0725 106.862 10.3703 106.443 10.6851C106.334 10.7675 106.238 10.8648 106.158 10.9729C106.095 11.0262 106.032 11.0799 105.97 11.1337L105.74 11.3337C100.955 15.5598 98.0198 21.503 97.5798 27.8809L97.5599 28.1793C97.1806 34.4441 99.3288 40.6047 103.528 45.2787L103.529 45.2783C104.545 46.4237 105.66 47.462 106.856 48.3849C109.52 50.598 112.896 52.099 116.374 52.8634C116.383 52.8654 116.392 52.8675 116.401 52.8696C116.42 52.8737 116.439 52.8779 116.458 52.882C117.693 53.156 118.954 53.3357 120.232 53.4145H120.234C120.706 53.4429 121.184 53.4559 121.665 53.4545C122.147 53.4559 122.624 53.4429 123.096 53.4145H123.098C124.376 53.3357 125.638 53.156 126.872 52.882C126.891 52.8779 126.91 52.8737 126.929 52.8696C126.938 52.8675 126.947 52.8654 126.956 52.8634C130.434 52.0991 133.81 50.598 136.475 48.3849C137.67 47.4619 138.785 46.4237 139.802 45.2783L139.802 45.2787C144.002 40.6048 146.15 34.444 145.771 28.1793L145.751 27.8809C145.311 21.5031 142.376 15.5598 137.59 11.3337L137.361 11.1337C137.298 11.0798 137.235 11.0263 137.172 10.9729C137.092 10.8649 136.997 10.7675 136.887 10.6851C136.469 10.3703 136.053 10.0725 135.64 9.79041ZM99.065 10.7395C94.219 6.9644 88.4342 4.8586 82.1154 5.46033V5.45998C59.7979 7.57192 52.041 34.8697 69.0339 48.3068L69.037 48.3092C74.0829 52.276 80.5109 54.0497 86.8772 53.2331L86.8768 53.2328C91.6349 52.6505 95.2368 50.8805 98.9762 48.2458C99.2838 48.0291 99.4924 47.6981 99.5548 47.327C99.6172 46.9559 99.5285 46.5749 99.3087 46.2694L98.2332 44.7747C97.8001 44.1729 96.9783 44.0122 96.3529 44.3953L96.293 44.4342C92.438 47.0686 89.724 48.311 85.1352 48.693C79.3633 48.7266 74.4845 47.282 70.3906 43.2648H70.391C66.6471 39.5898 64.5443 34.5591 64.5589 29.313C64.5589 29.3097 64.5589 29.3062 64.5589 29.303C64.5366 24.1579 66.6001 19.2235 70.2781 15.6256C74.0145 11.9737 79.0686 9.98655 84.2918 10.1168V10.1171C88.5957 10.2248 92.7502 11.7194 96.136 14.3787C96.7342 14.8484 97.5973 14.7592 98.0866 14.177L99.2781 12.7593C99.5244 12.4661 99.6408 12.085 99.6006 11.7042C99.5604 11.3233 99.367 10.9749 99.065 10.7395ZM121.891 10.0686C125.865 10.1197 129.464 11.46 133.036 13.7322C134.896 15.0641 136.527 16.7231 137.839 18.6509V18.6513C140.712 22.8961 141.749 28.1208 140.714 33.1405L140.714 33.1425C139.784 37.6799 137.279 41.7224 133.668 44.5705C133.069 45.0295 132.512 45.4225 131.966 45.7682C131.378 46.1337 130.773 46.4663 130.155 46.7648C129.056 47.2801 127.872 47.6864 126.369 48.1185C126.227 48.1541 126.082 48.1887 125.931 48.2248C124.581 48.529 123.213 48.6862 121.851 48.7006C120.366 48.7133 118.873 48.5567 117.399 48.2248C117.248 48.1887 117.104 48.1541 116.961 48.1185C115.458 47.6863 114.274 47.2801 113.175 46.7648C112.557 46.4663 111.952 46.1337 111.364 45.7682C110.818 45.4225 110.261 45.0295 109.662 44.5705C106.051 41.7224 103.546 37.6799 102.617 33.1425L102.616 33.1405C101.581 28.1208 102.618 22.8961 105.491 18.6513V18.6509C106.803 16.7232 108.434 15.0641 110.294 13.7322C114.001 11.3742 117.737 10.0202 121.891 10.0686ZM121.635 23.4647C119.332 20.873 118.203 19.7307 114.533 20.1949C112.7 20.8189 110.944 21.8345 110.083 23.6895C109.398 25.164 109.422 27.0221 109.969 28.5353C111.078 31.6077 119.14 38.9644 121.765 41.5975L127.098 36.109C129.805 33.3334 133.946 30.1852 133.887 26.3265C133.858 24.646 133.159 23.0491 131.953 21.9004C130.736 20.7217 129.108 20.0806 127.426 20.1175C124.738 20.1893 123.308 21.6507 121.635 23.4647Z" fill="#1E1E1E"/>
<g id="Coinple_2">
<path id="Vector" d="M180.661 125.85V88.3065H203.293V90.8447H183.305V105.862H202.659V108.347H183.305V123.312H203.716V125.85H180.661Z" fill="#1E1E1E"/>
<path id="Vector_2" d="M156.359 125.85V88.3065H159.003V124.422L157.998 123.312H175.201V125.85H156.359Z" fill="#1E1E1E"/>
<path id="Vector_3" d="M123.632 125.85V88.3065H136.481C140.535 88.3065 143.69 89.2936 145.947 91.2677C148.203 93.2066 149.331 95.8857 149.331 99.3052C149.331 101.561 148.82 103.518 147.797 105.175C146.775 106.796 145.294 108.048 143.356 108.929C141.452 109.81 139.161 110.251 136.481 110.251H126.276V125.85H123.632ZM126.276 107.713H136.481C139.725 107.713 142.21 106.99 143.937 105.545C145.7 104.099 146.581 102.02 146.581 99.3052C146.581 96.5908 145.7 94.5109 143.937 93.0656C142.21 91.585 139.725 90.8447 136.481 90.8447H126.276V107.713Z" fill="#1E1E1E"/>
<path id="Vector_4" d="M86.671 125.85V88.3065H90.4782L112.158 123.259V88.3065H114.802V125.85H110.889L89.3149 91.1091V125.85H86.671Z" fill="#1E1E1E"/>
<path id="Vector_5" d="M75.2196 125.85V88.3065H77.8635V125.85H75.2196Z" fill="#1E1E1E"/>
<path id="Vector_6" d="M52.2209 126.696C48.8014 126.696 45.8579 125.903 43.3902 124.317C40.9226 122.73 39.019 120.474 37.6794 117.548C36.3398 114.622 35.67 111.15 35.67 107.131C35.67 103.077 36.3398 99.5872 37.6794 96.6613C39.019 93.7354 40.9226 91.4792 43.3902 89.8929C45.8579 88.2713 48.8014 87.4605 52.2209 87.4605C55.6404 87.4605 58.5839 88.2713 61.0515 89.8929C63.5544 91.4792 65.4581 93.7354 66.7624 96.6613C68.102 99.5872 68.7718 103.077 68.7718 107.131C68.7718 111.15 68.102 114.622 66.7624 117.548C65.4581 120.474 63.5544 122.73 61.0515 124.317C58.5839 125.903 55.6404 126.696 52.2209 126.696ZM52.2209 124.105C55.0763 124.105 57.5263 123.418 59.571 122.043C61.6508 120.668 63.2372 118.711 64.33 116.173C65.4228 113.635 65.9692 110.621 65.9692 107.131C65.9692 103.606 65.4228 100.574 64.33 98.0361C63.2372 95.498 61.6508 93.5415 59.571 92.1666C57.5263 90.7566 55.0763 90.0515 52.2209 90.0515C49.4007 90.0515 46.9507 90.7566 44.8708 92.1666C42.8262 93.5415 41.2399 95.498 40.1118 98.0361C39.019 100.574 38.4726 103.606 38.4726 107.131C38.4726 110.621 39.019 113.635 40.1118 116.173C41.2399 118.711 42.8262 120.668 44.8708 122.043C46.9507 123.418 49.4007 124.105 52.2209 124.105Z" fill="#1E1E1E"/>
<path id="Vector_7" d="M16.1278 126.696C12.8846 126.696 10.0468 125.921 7.61445 124.369C5.21731 122.783 3.34895 120.527 2.00937 117.601C0.66979 114.675 0 111.185 0 107.131C0 103.077 0.66979 99.5872 2.00937 96.6613C3.34895 93.7001 5.21731 91.4264 7.61445 89.84C10.0468 88.2537 12.8846 87.4605 16.1278 87.4605C20.3933 87.4605 23.7599 88.6414 26.2276 91.0033C28.6952 93.33 30.3168 96.4674 31.0924 100.416L28.2898 100.627C27.7258 97.384 26.4214 94.8106 24.3768 92.9069C22.3322 91.0033 19.5825 90.0515 16.1278 90.0515C13.4487 90.0515 11.1044 90.7566 9.09504 92.1666C7.08567 93.5415 5.53458 95.498 4.44176 98.0361C3.34895 100.574 2.80254 103.606 2.80254 107.131C2.80254 110.656 3.34895 113.688 4.44176 116.226C5.53458 118.729 7.08567 120.668 9.09504 122.043C11.1044 123.418 13.4487 124.105 16.1278 124.105C19.7588 124.105 22.6318 123.1 24.747 121.091C26.8621 119.046 28.1488 116.244 28.6071 112.683L31.4096 112.895C30.9513 115.715 30.07 118.165 28.7657 120.245C27.4614 122.29 25.734 123.876 23.5837 125.004C21.4685 126.132 18.9833 126.696 16.1278 126.696Z" fill="#1E1E1E"/>
</g>
</g>
</g>
</svg>
